<mxfile host="65bd71144e">
    <diagram id="885yjunEFYMVmsBoXlwK" name="Page-1">
        <mxGraphModel dx="1275" dy="200" grid="1" gridSize="10" guides="1" tooltips="1" connect="1" arrows="1" fold="1" page="1" pageScale="1" pageWidth="850" pageHeight="1100" math="0" shadow="0">
            <root>
                <mxCell id="0"/>
                <mxCell id="1" parent="0"/>
                <mxCell id="91" style="edgeStyle=none;html=1;exitX=0.25;exitY=0;exitDx=0;exitDy=0;strokeWidth=4;startArrow=classic;startFill=1;" edge="1" parent="1" source="2">
                    <mxGeometry relative="1" as="geometry">
                        <mxPoint x="-6" y="140" as="targetPoint"/>
                        <Array as="points">
                            <mxPoint x="1500" y="40"/>
                            <mxPoint x="-6" y="40"/>
                        </Array>
                    </mxGeometry>
                </mxCell>
                <mxCell id="2" value="USER INFO" style="shape=table;startSize=30;container=1;collapsible=0;childLayout=tableLayout;strokeColor=#432D57;fontSize=16;fillColor=#76608a;fontColor=#ffffff;" vertex="1" parent="1">
                    <mxGeometry x="1350" y="150" width="627" height="270" as="geometry"/>
                </mxCell>
                <mxCell id="3" value="" style="shape=tableRow;horizontal=0;startSize=0;swimlaneHead=0;swimlaneBody=0;strokeColor=inherit;top=0;left=0;bottom=0;right=0;collapsible=0;dropTarget=0;fillColor=none;points=[[0,0.5],[1,0.5]];portConstraint=eastwest;fontSize=16;" vertex="1" parent="2">
                    <mxGeometry y="30" width="627" height="40" as="geometry"/>
                </mxCell>
                <mxCell id="4" value="NetID" style="shape=partialRectangle;html=1;whiteSpace=wrap;connectable=0;strokeColor=#314354;overflow=hidden;fillColor=#647687;top=0;left=0;bottom=0;right=0;pointerEvents=1;fontSize=16;fontColor=#ffffff;" vertex="1" parent="3">
                    <mxGeometry width="157" height="40" as="geometry">
                        <mxRectangle width="157" height="40" as="alternateBounds"/>
                    </mxGeometry>
                </mxCell>
                <mxCell id="5" value="assigned_projects" style="shape=partialRectangle;html=1;whiteSpace=wrap;connectable=0;strokeColor=light-dark(#314354,#000000);overflow=hidden;fillColor=#647687;top=0;left=0;bottom=0;right=0;pointerEvents=1;fontSize=16;fontColor=#ffffff;" vertex="1" parent="3">
                    <mxGeometry x="157" width="156" height="40" as="geometry">
                        <mxRectangle width="156" height="40" as="alternateBounds"/>
                    </mxGeometry>
                </mxCell>
                <mxCell id="6" value="time_logs" style="shape=partialRectangle;html=1;whiteSpace=wrap;connectable=0;strokeColor=#314354;overflow=hidden;fillColor=#647687;top=0;left=0;bottom=0;right=0;pointerEvents=1;fontSize=16;fontColor=#ffffff;" vertex="1" parent="3">
                    <mxGeometry x="313" width="157" height="40" as="geometry">
                        <mxRectangle width="157" height="40" as="alternateBounds"/>
                    </mxGeometry>
                </mxCell>
                <mxCell id="67" value="user_log_count" style="shape=partialRectangle;html=1;whiteSpace=wrap;connectable=0;strokeColor=#314354;overflow=hidden;fillColor=#647687;top=0;left=0;bottom=0;right=0;pointerEvents=1;fontSize=16;fontColor=#ffffff;" vertex="1" parent="3">
                    <mxGeometry x="470" width="157" height="40" as="geometry">
                        <mxRectangle width="157" height="40" as="alternateBounds"/>
                    </mxGeometry>
                </mxCell>
                <mxCell id="7" value="" style="shape=tableRow;horizontal=0;startSize=0;swimlaneHead=0;swimlaneBody=0;strokeColor=inherit;top=0;left=0;bottom=0;right=0;collapsible=0;dropTarget=0;fillColor=none;points=[[0,0.5],[1,0.5]];portConstraint=eastwest;fontSize=16;" vertex="1" parent="2">
                    <mxGeometry y="70" width="627" height="100" as="geometry"/>
                </mxCell>
                <mxCell id="8" value="String" style="shape=partialRectangle;html=1;whiteSpace=wrap;connectable=0;strokeColor=inherit;overflow=hidden;fillColor=none;top=0;left=0;bottom=0;right=0;pointerEvents=1;fontSize=16;" vertex="1" parent="7">
                    <mxGeometry width="157" height="100" as="geometry">
                        <mxRectangle width="157" height="100" as="alternateBounds"/>
                    </mxGeometry>
                </mxCell>
                <mxCell id="9" value="List of&amp;nbsp; project_id Ints" style="shape=partialRectangle;html=1;whiteSpace=wrap;connectable=0;strokeColor=inherit;overflow=hidden;fillColor=none;top=0;left=0;bottom=0;right=0;pointerEvents=1;fontSize=16;" vertex="1" parent="7">
                    <mxGeometry x="157" width="156" height="100" as="geometry">
                        <mxRectangle width="156" height="100" as="alternateBounds"/>
                    </mxGeometry>
                </mxCell>
                <mxCell id="10" value="List of Log ID" style="shape=partialRectangle;html=1;whiteSpace=wrap;connectable=0;strokeColor=inherit;overflow=hidden;fillColor=none;top=0;left=0;bottom=0;right=0;pointerEvents=1;fontSize=16;" vertex="1" parent="7">
                    <mxGeometry x="313" width="157" height="100" as="geometry">
                        <mxRectangle width="157" height="100" as="alternateBounds"/>
                    </mxGeometry>
                </mxCell>
                <mxCell id="68" value="Int: +1 for each log made by a respective user" style="shape=partialRectangle;html=1;whiteSpace=wrap;connectable=0;strokeColor=inherit;overflow=hidden;fillColor=none;top=0;left=0;bottom=0;right=0;pointerEvents=1;fontSize=16;" vertex="1" parent="7">
                    <mxGeometry x="470" width="157" height="100" as="geometry">
                        <mxRectangle width="157" height="100" as="alternateBounds"/>
                    </mxGeometry>
                </mxCell>
                <mxCell id="11" value="" style="shape=tableRow;horizontal=0;startSize=0;swimlaneHead=0;swimlaneBody=0;strokeColor=inherit;top=0;left=0;bottom=0;right=0;collapsible=0;dropTarget=0;fillColor=none;points=[[0,0.5],[1,0.5]];portConstraint=eastwest;fontSize=16;" vertex="1" parent="2">
                    <mxGeometry y="170" width="627" height="100" as="geometry"/>
                </mxCell>
                <mxCell id="12" value="&quot;abc12345&quot;" style="shape=partialRectangle;html=1;whiteSpace=wrap;connectable=0;strokeColor=inherit;overflow=hidden;fillColor=none;top=0;left=0;bottom=0;right=0;pointerEvents=1;fontSize=16;" vertex="1" parent="11">
                    <mxGeometry width="157" height="100" as="geometry">
                        <mxRectangle width="157" height="100" as="alternateBounds"/>
                    </mxGeometry>
                </mxCell>
                <mxCell id="13" value="[1, 5, 10]" style="shape=partialRectangle;html=1;whiteSpace=wrap;connectable=0;strokeColor=inherit;overflow=hidden;fillColor=none;top=0;left=0;bottom=0;right=0;pointerEvents=1;fontSize=16;" vertex="1" parent="11">
                    <mxGeometry x="157" width="156" height="100" as="geometry">
                        <mxRectangle width="156" height="100" as="alternateBounds"/>
                    </mxGeometry>
                </mxCell>
                <mxCell id="14" value="?????" style="shape=partialRectangle;html=1;whiteSpace=wrap;connectable=0;strokeColor=inherit;overflow=hidden;fillColor=none;top=0;left=0;bottom=0;right=0;pointerEvents=1;fontSize=16;" vertex="1" parent="11">
                    <mxGeometry x="313" width="157" height="100" as="geometry">
                        <mxRectangle width="157" height="100" as="alternateBounds"/>
                    </mxGeometry>
                </mxCell>
                <mxCell id="69" value="3" style="shape=partialRectangle;html=1;whiteSpace=wrap;connectable=0;strokeColor=inherit;overflow=hidden;fillColor=none;top=0;left=0;bottom=0;right=0;pointerEvents=1;fontSize=16;" vertex="1" parent="11">
                    <mxGeometry x="470" width="157" height="100" as="geometry">
                        <mxRectangle width="157" height="100" as="alternateBounds"/>
                    </mxGeometry>
                </mxCell>
                <mxCell id="15" value="Project Info" style="shape=table;startSize=30;container=1;collapsible=0;childLayout=tableLayout;strokeColor=#6D1F00;fontSize=16;fillColor=#a0522d;fontColor=#ffffff;" vertex="1" parent="1">
                    <mxGeometry x="-350" y="150" width="1559" height="241.5" as="geometry"/>
                </mxCell>
                <mxCell id="16" value="" style="shape=tableRow;horizontal=0;startSize=0;swimlaneHead=0;swimlaneBody=0;strokeColor=inherit;top=0;left=0;bottom=0;right=0;collapsible=0;dropTarget=0;fillColor=none;points=[[0,0.5],[1,0.5]];portConstraint=eastwest;fontSize=16;" vertex="1" parent="15">
                    <mxGeometry y="30" width="1559" height="50" as="geometry"/>
                </mxCell>
                <mxCell id="17" value="project_id" style="shape=partialRectangle;html=1;whiteSpace=wrap;connectable=0;strokeColor=inherit;overflow=hidden;fillColor=none;top=0;left=0;bottom=0;right=0;pointerEvents=1;fontSize=16;" vertex="1" parent="16">
                    <mxGeometry width="83" height="50" as="geometry">
                        <mxRectangle width="83" height="50" as="alternateBounds"/>
                    </mxGeometry>
                </mxCell>
                <mxCell id="76" value="project_name" style="shape=partialRectangle;html=1;whiteSpace=wrap;connectable=0;strokeColor=inherit;overflow=hidden;fillColor=none;top=0;left=0;bottom=0;right=0;pointerEvents=1;fontSize=16;" vertex="1" parent="16">
                    <mxGeometry x="83" width="149" height="50" as="geometry">
                        <mxRectangle width="149" height="50" as="alternateBounds"/>
                    </mxGeometry>
                </mxCell>
                <mxCell id="18" value="assigned_students" style="shape=partialRectangle;html=1;whiteSpace=wrap;connectable=0;strokeColor=inherit;overflow=hidden;fillColor=none;top=0;left=0;bottom=0;right=0;pointerEvents=1;fontSize=16;" vertex="1" parent="16">
                    <mxGeometry x="232" width="198" height="50" as="geometry">
                        <mxRectangle width="198" height="50" as="alternateBounds"/>
                    </mxGeometry>
                </mxCell>
                <mxCell id="19" value="total_work_hours" style="shape=partialRectangle;html=1;whiteSpace=wrap;connectable=0;strokeColor=inherit;overflow=hidden;fillColor=none;top=0;left=0;bottom=0;right=0;pointerEvents=1;fontSize=16;" vertex="1" parent="16">
                    <mxGeometry x="430" width="133" height="50" as="geometry">
                        <mxRectangle width="133" height="50" as="alternateBounds"/>
                    </mxGeometry>
                </mxCell>
                <mxCell id="36" value="billed_hours" style="shape=partialRectangle;html=1;whiteSpace=wrap;connectable=0;strokeColor=inherit;overflow=hidden;fillColor=none;top=0;left=0;bottom=0;right=0;pointerEvents=1;fontSize=16;" vertex="1" parent="16">
                    <mxGeometry x="563" width="124" height="50" as="geometry">
                        <mxRectangle width="124" height="50" as="alternateBounds"/>
                    </mxGeometry>
                </mxCell>
                <mxCell id="52" value="unbilled_hours" style="shape=partialRectangle;html=1;whiteSpace=wrap;connectable=0;strokeColor=inherit;overflow=hidden;fillColor=none;top=0;left=0;bottom=0;right=0;pointerEvents=1;fontSize=16;" vertex="1" parent="16">
                    <mxGeometry x="687" width="140" height="50" as="geometry">
                        <mxRectangle width="140" height="50" as="alternateBounds"/>
                    </mxGeometry>
                </mxCell>
                <mxCell id="79" value="hour_limit_staus" style="shape=partialRectangle;html=1;whiteSpace=wrap;connectable=0;strokeColor=inherit;overflow=hidden;fillColor=none;top=0;left=0;bottom=0;right=0;pointerEvents=1;fontSize=16;" vertex="1" parent="16">
                    <mxGeometry x="827" width="183" height="50" as="geometry">
                        <mxRectangle width="183" height="50" as="alternateBounds"/>
                    </mxGeometry>
                </mxCell>
                <mxCell id="82" value="hour_limit_data" style="shape=partialRectangle;html=1;whiteSpace=wrap;connectable=0;strokeColor=inherit;overflow=hidden;fillColor=none;top=0;left=0;bottom=0;right=0;pointerEvents=1;fontSize=16;" vertex="1" parent="16">
                    <mxGeometry x="1010" width="183" height="50" as="geometry">
                        <mxRectangle width="183" height="50" as="alternateBounds"/>
                    </mxGeometry>
                </mxCell>
                <mxCell id="85" value="hour_limit_remaining" style="shape=partialRectangle;html=1;whiteSpace=wrap;connectable=0;strokeColor=inherit;overflow=hidden;fillColor=none;top=0;left=0;bottom=0;right=0;pointerEvents=1;fontSize=16;" vertex="1" parent="16">
                    <mxGeometry x="1193" width="183" height="50" as="geometry">
                        <mxRectangle width="183" height="50" as="alternateBounds"/>
                    </mxGeometry>
                </mxCell>
                <mxCell id="92" value="list_of_project_logs" style="shape=partialRectangle;html=1;whiteSpace=wrap;connectable=0;strokeColor=inherit;overflow=hidden;fillColor=none;top=0;left=0;bottom=0;right=0;pointerEvents=1;fontSize=16;" vertex="1" parent="16">
                    <mxGeometry x="1376" width="183" height="50" as="geometry">
                        <mxRectangle width="183" height="50" as="alternateBounds"/>
                    </mxGeometry>
                </mxCell>
                <mxCell id="20" value="" style="shape=tableRow;horizontal=0;startSize=0;swimlaneHead=0;swimlaneBody=0;strokeColor=inherit;top=0;left=0;bottom=0;right=0;collapsible=0;dropTarget=0;fillColor=none;points=[[0,0.5],[1,0.5]];portConstraint=eastwest;fontSize=16;" vertex="1" parent="15">
                    <mxGeometry y="80" width="1559" height="70" as="geometry"/>
                </mxCell>
                <mxCell id="21" value="Int" style="shape=partialRectangle;html=1;whiteSpace=wrap;connectable=0;strokeColor=inherit;overflow=hidden;fillColor=none;top=0;left=0;bottom=0;right=0;pointerEvents=1;fontSize=16;" vertex="1" parent="20">
                    <mxGeometry width="83" height="70" as="geometry">
                        <mxRectangle width="83" height="70" as="alternateBounds"/>
                    </mxGeometry>
                </mxCell>
                <mxCell id="77" value="String" style="shape=partialRectangle;html=1;whiteSpace=wrap;connectable=0;strokeColor=inherit;overflow=hidden;fillColor=none;top=0;left=0;bottom=0;right=0;pointerEvents=1;fontSize=16;" vertex="1" parent="20">
                    <mxGeometry x="83" width="149" height="70" as="geometry">
                        <mxRectangle width="149" height="70" as="alternateBounds"/>
                    </mxGeometry>
                </mxCell>
                <mxCell id="22" value="List of NetID (strings)" style="shape=partialRectangle;html=1;whiteSpace=wrap;connectable=0;strokeColor=inherit;overflow=hidden;fillColor=none;top=0;left=0;bottom=0;right=0;pointerEvents=1;fontSize=16;" vertex="1" parent="20">
                    <mxGeometry x="232" width="198" height="70" as="geometry">
                        <mxRectangle width="198" height="70" as="alternateBounds"/>
                    </mxGeometry>
                </mxCell>
                <mxCell id="23" value="Int" style="shape=partialRectangle;html=1;whiteSpace=wrap;connectable=0;strokeColor=inherit;overflow=hidden;fillColor=none;top=0;left=0;bottom=0;right=0;pointerEvents=1;fontSize=16;" vertex="1" parent="20">
                    <mxGeometry x="430" width="133" height="70" as="geometry">
                        <mxRectangle width="133" height="70" as="alternateBounds"/>
                    </mxGeometry>
                </mxCell>
                <mxCell id="37" value="Int" style="shape=partialRectangle;html=1;whiteSpace=wrap;connectable=0;strokeColor=inherit;overflow=hidden;fillColor=none;top=0;left=0;bottom=0;right=0;pointerEvents=1;fontSize=16;" vertex="1" parent="20">
                    <mxGeometry x="563" width="124" height="70" as="geometry">
                        <mxRectangle width="124" height="70" as="alternateBounds"/>
                    </mxGeometry>
                </mxCell>
                <mxCell id="53" value="Int" style="shape=partialRectangle;html=1;whiteSpace=wrap;connectable=0;strokeColor=inherit;overflow=hidden;fillColor=none;top=0;left=0;bottom=0;right=0;pointerEvents=1;fontSize=16;" vertex="1" parent="20">
                    <mxGeometry x="687" width="140" height="70" as="geometry">
                        <mxRectangle width="140" height="70" as="alternateBounds"/>
                    </mxGeometry>
                </mxCell>
                <mxCell id="80" value="One of 4 strings: &quot;good&quot;, &quot;okay&quot;, &quot;near-limit&quot;, &quot;over- limit&quot;" style="shape=partialRectangle;html=1;whiteSpace=wrap;connectable=0;strokeColor=inherit;overflow=hidden;fillColor=none;top=0;left=0;bottom=0;right=0;pointerEvents=1;fontSize=16;" vertex="1" parent="20">
                    <mxGeometry x="827" width="183" height="70" as="geometry">
                        <mxRectangle width="183" height="70" as="alternateBounds"/>
                    </mxGeometry>
                </mxCell>
                <mxCell id="83" value="Dictionary:&lt;div&gt;&lt;font style=&quot;color: light-dark(rgb(0, 0, 0), rgb(255, 255, 255));&quot;&gt;key - net_id, value - rmaining hours&lt;/font&gt;&lt;/div&gt;" style="shape=partialRectangle;html=1;whiteSpace=wrap;connectable=0;strokeColor=inherit;overflow=hidden;fillColor=none;top=0;left=0;bottom=0;right=0;pointerEvents=1;fontSize=16;" vertex="1" parent="20">
                    <mxGeometry x="1010" width="183" height="70" as="geometry">
                        <mxRectangle width="183" height="70" as="alternateBounds"/>
                    </mxGeometry>
                </mxCell>
                <mxCell id="86" value="Int (all values added up)" style="shape=partialRectangle;html=1;whiteSpace=wrap;connectable=0;strokeColor=inherit;overflow=hidden;fillColor=none;top=0;left=0;bottom=0;right=0;pointerEvents=1;fontSize=16;" vertex="1" parent="20">
                    <mxGeometry x="1193" width="183" height="70" as="geometry">
                        <mxRectangle width="183" height="70" as="alternateBounds"/>
                    </mxGeometry>
                </mxCell>
                <mxCell id="93" value="List of log_id that share the prject_id" style="shape=partialRectangle;html=1;whiteSpace=wrap;connectable=0;strokeColor=inherit;overflow=hidden;fillColor=none;top=0;left=0;bottom=0;right=0;pointerEvents=1;fontSize=16;" vertex="1" parent="20">
                    <mxGeometry x="1376" width="183" height="70" as="geometry">
                        <mxRectangle width="183" height="70" as="alternateBounds"/>
                    </mxGeometry>
                </mxCell>
                <mxCell id="24" value="" style="shape=tableRow;horizontal=0;startSize=0;swimlaneHead=0;swimlaneBody=0;strokeColor=inherit;top=0;left=0;bottom=0;right=0;collapsible=0;dropTarget=0;fillColor=none;points=[[0,0.5],[1,0.5]];portConstraint=eastwest;fontSize=16;" vertex="1" parent="15">
                    <mxGeometry y="150" width="1559" height="92" as="geometry"/>
                </mxCell>
                <mxCell id="25" value="1" style="shape=partialRectangle;html=1;whiteSpace=wrap;connectable=0;strokeColor=inherit;overflow=hidden;fillColor=none;top=0;left=0;bottom=0;right=0;pointerEvents=1;fontSize=16;" vertex="1" parent="24">
                    <mxGeometry width="83" height="92" as="geometry">
                        <mxRectangle width="83" height="92" as="alternateBounds"/>
                    </mxGeometry>
                </mxCell>
                <mxCell id="78" value="&quot;i3 Timetracker&quot;" style="shape=partialRectangle;html=1;whiteSpace=wrap;connectable=0;strokeColor=inherit;overflow=hidden;fillColor=none;top=0;left=0;bottom=0;right=0;pointerEvents=1;fontSize=16;" vertex="1" parent="24">
                    <mxGeometry x="83" width="149" height="92" as="geometry">
                        <mxRectangle width="149" height="92" as="alternateBounds"/>
                    </mxGeometry>
                </mxCell>
                <mxCell id="26" value="[&quot;abc12345&quot;, &quot;xyz67890&quot;]" style="shape=partialRectangle;html=1;whiteSpace=wrap;connectable=0;strokeColor=inherit;overflow=hidden;fillColor=none;top=0;left=0;bottom=0;right=0;pointerEvents=1;fontSize=16;" vertex="1" parent="24">
                    <mxGeometry x="232" width="198" height="92" as="geometry">
                        <mxRectangle width="198" height="92" as="alternateBounds"/>
                    </mxGeometry>
                </mxCell>
                <mxCell id="27" value="10" style="shape=partialRectangle;html=1;whiteSpace=wrap;connectable=0;strokeColor=inherit;overflow=hidden;fillColor=none;top=0;left=0;bottom=0;right=0;pointerEvents=1;fontSize=16;" vertex="1" parent="24">
                    <mxGeometry x="430" width="133" height="92" as="geometry">
                        <mxRectangle width="133" height="92" as="alternateBounds"/>
                    </mxGeometry>
                </mxCell>
                <mxCell id="38" value="7" style="shape=partialRectangle;html=1;whiteSpace=wrap;connectable=0;strokeColor=inherit;overflow=hidden;fillColor=none;top=0;left=0;bottom=0;right=0;pointerEvents=1;fontSize=16;" vertex="1" parent="24">
                    <mxGeometry x="563" width="124" height="92" as="geometry">
                        <mxRectangle width="124" height="92" as="alternateBounds"/>
                    </mxGeometry>
                </mxCell>
                <mxCell id="54" value="3" style="shape=partialRectangle;html=1;whiteSpace=wrap;connectable=0;strokeColor=inherit;overflow=hidden;fillColor=none;top=0;left=0;bottom=0;right=0;pointerEvents=1;fontSize=16;" vertex="1" parent="24">
                    <mxGeometry x="687" width="140" height="92" as="geometry">
                        <mxRectangle width="140" height="92" as="alternateBounds"/>
                    </mxGeometry>
                </mxCell>
                <mxCell id="81" value="&quot;good&quot;" style="shape=partialRectangle;html=1;whiteSpace=wrap;connectable=0;strokeColor=inherit;overflow=hidden;fillColor=none;top=0;left=0;bottom=0;right=0;pointerEvents=1;fontSize=16;" vertex="1" parent="24">
                    <mxGeometry x="827" width="183" height="92" as="geometry">
                        <mxRectangle width="183" height="92" as="alternateBounds"/>
                    </mxGeometry>
                </mxCell>
                <mxCell id="84" value="{&quot;abc12345&quot;: 5, &quot;xyz67890&quot;: 20}" style="shape=partialRectangle;html=1;whiteSpace=wrap;connectable=0;strokeColor=inherit;overflow=hidden;fillColor=none;top=0;left=0;bottom=0;right=0;pointerEvents=1;fontSize=16;" vertex="1" parent="24">
                    <mxGeometry x="1010" width="183" height="92" as="geometry">
                        <mxRectangle width="183" height="92" as="alternateBounds"/>
                    </mxGeometry>
                </mxCell>
                <mxCell id="87" value="20" style="shape=partialRectangle;html=1;whiteSpace=wrap;connectable=0;strokeColor=inherit;overflow=hidden;fillColor=none;top=0;left=0;bottom=0;right=0;pointerEvents=1;fontSize=16;" vertex="1" parent="24">
                    <mxGeometry x="1193" width="183" height="92" as="geometry">
                        <mxRectangle width="183" height="92" as="alternateBounds"/>
                    </mxGeometry>
                </mxCell>
                <mxCell id="94" value="{&quot;abcd12345&quot;, &quot;abc12345-7&quot;}" style="shape=partialRectangle;html=1;whiteSpace=wrap;connectable=0;strokeColor=inherit;overflow=hidden;fillColor=none;top=0;left=0;bottom=0;right=0;pointerEvents=1;fontSize=16;" vertex="1" parent="24">
                    <mxGeometry x="1376" width="183" height="92" as="geometry">
                        <mxRectangle width="183" height="92" as="alternateBounds"/>
                    </mxGeometry>
                </mxCell>
                <mxCell id="39" value="LOG" style="shape=table;startSize=30;container=1;collapsible=0;childLayout=tableLayout;strokeColor=#006EAF;fontSize=16;fillColor=#1ba1e2;fontColor=#ffffff;" vertex="1" parent="1">
                    <mxGeometry x="390" y="670" width="1320" height="270" as="geometry"/>
                </mxCell>
                <mxCell id="40" value="" style="shape=tableRow;horizontal=0;startSize=0;swimlaneHead=0;swimlaneBody=0;strokeColor=inherit;top=0;left=0;bottom=0;right=0;collapsible=0;dropTarget=0;fillColor=none;points=[[0,0.5],[1,0.5]];portConstraint=eastwest;fontSize=16;" vertex="1" parent="39">
                    <mxGeometry y="30" width="1320" height="40" as="geometry"/>
                </mxCell>
                <mxCell id="64" value="log_id" style="shape=partialRectangle;html=1;whiteSpace=wrap;connectable=0;strokeColor=#314354;overflow=hidden;fillColor=#647687;top=0;left=0;bottom=0;right=0;pointerEvents=1;fontSize=16;fontColor=#ffffff;" vertex="1" parent="40">
                    <mxGeometry width="160" height="40" as="geometry">
                        <mxRectangle width="160" height="40" as="alternateBounds"/>
                    </mxGeometry>
                </mxCell>
                <mxCell id="41" value="NetID" style="shape=partialRectangle;html=1;whiteSpace=wrap;connectable=0;strokeColor=#314354;overflow=hidden;fillColor=#647687;top=0;left=0;bottom=0;right=0;pointerEvents=1;fontSize=16;fontColor=#ffffff;" vertex="1" parent="40">
                    <mxGeometry x="160" width="160" height="40" as="geometry">
                        <mxRectangle width="160" height="40" as="alternateBounds"/>
                    </mxGeometry>
                </mxCell>
                <mxCell id="55" value="project_name" style="shape=partialRectangle;html=1;whiteSpace=wrap;connectable=0;strokeColor=light-dark(#314354,#000000);overflow=hidden;fillColor=#647687;top=0;left=0;bottom=0;right=0;pointerEvents=1;fontSize=16;fontColor=#ffffff;" vertex="1" parent="40">
                    <mxGeometry x="320" width="210" height="40" as="geometry">
                        <mxRectangle width="210" height="40" as="alternateBounds"/>
                    </mxGeometry>
                </mxCell>
                <mxCell id="70" value="proj_id" style="shape=partialRectangle;html=1;whiteSpace=wrap;connectable=0;strokeColor=light-dark(#314354,#000000);overflow=hidden;fillColor=#647687;top=0;left=0;bottom=0;right=0;pointerEvents=1;fontSize=16;fontColor=#ffffff;" vertex="1" parent="40">
                    <mxGeometry x="530" width="210" height="40" as="geometry">
                        <mxRectangle width="210" height="40" as="alternateBounds"/>
                    </mxGeometry>
                </mxCell>
                <mxCell id="42" value="start_time" style="shape=partialRectangle;html=1;whiteSpace=wrap;connectable=0;strokeColor=light-dark(#314354,#000000);overflow=hidden;fillColor=#647687;top=0;left=0;bottom=0;right=0;pointerEvents=1;fontSize=16;fontColor=#ffffff;" vertex="1" parent="40">
                    <mxGeometry x="740" width="120" height="40" as="geometry">
                        <mxRectangle width="120" height="40" as="alternateBounds"/>
                    </mxGeometry>
                </mxCell>
                <mxCell id="43" value="stop_time" style="shape=partialRectangle;html=1;whiteSpace=wrap;connectable=0;strokeColor=#314354;overflow=hidden;fillColor=#647687;top=0;left=0;bottom=0;right=0;pointerEvents=1;fontSize=16;fontColor=#ffffff;" vertex="1" parent="40">
                    <mxGeometry x="860" width="90" height="40" as="geometry">
                        <mxRectangle width="90" height="40" as="alternateBounds"/>
                    </mxGeometry>
                </mxCell>
                <mxCell id="58" value="hours_worked" style="shape=partialRectangle;html=1;whiteSpace=wrap;connectable=0;strokeColor=#314354;overflow=hidden;fillColor=#647687;top=0;left=0;bottom=0;right=0;pointerEvents=1;fontSize=16;fontColor=#ffffff;" vertex="1" parent="40">
                    <mxGeometry x="950" width="170" height="40" as="geometry">
                        <mxRectangle width="170" height="40" as="alternateBounds"/>
                    </mxGeometry>
                </mxCell>
                <mxCell id="61" value="description_log" style="shape=partialRectangle;html=1;whiteSpace=wrap;connectable=0;strokeColor=#314354;overflow=hidden;fillColor=#647687;top=0;left=0;bottom=0;right=0;pointerEvents=1;fontSize=16;fontColor=#ffffff;" vertex="1" parent="40">
                    <mxGeometry x="1120" width="200" height="40" as="geometry">
                        <mxRectangle width="200" height="40" as="alternateBounds"/>
                    </mxGeometry>
                </mxCell>
                <mxCell id="44" value="" style="shape=tableRow;horizontal=0;startSize=0;swimlaneHead=0;swimlaneBody=0;strokeColor=inherit;top=0;left=0;bottom=0;right=0;collapsible=0;dropTarget=0;fillColor=none;points=[[0,0.5],[1,0.5]];portConstraint=eastwest;fontSize=16;" vertex="1" parent="39">
                    <mxGeometry y="70" width="1320" height="100" as="geometry"/>
                </mxCell>
                <mxCell id="65" value="String: &quot;netID&quot; + &quot;-&quot; +&amp;nbsp; &quot;user_log_count&quot;" style="shape=partialRectangle;html=1;whiteSpace=wrap;connectable=0;strokeColor=inherit;overflow=hidden;fillColor=none;top=0;left=0;bottom=0;right=0;pointerEvents=1;fontSize=16;" vertex="1" parent="44">
                    <mxGeometry width="160" height="100" as="geometry">
                        <mxRectangle width="160" height="100" as="alternateBounds"/>
                    </mxGeometry>
                </mxCell>
                <mxCell id="45" value="String" style="shape=partialRectangle;html=1;whiteSpace=wrap;connectable=0;strokeColor=inherit;overflow=hidden;fillColor=none;top=0;left=0;bottom=0;right=0;pointerEvents=1;fontSize=16;" vertex="1" parent="44">
                    <mxGeometry x="160" width="160" height="100" as="geometry">
                        <mxRectangle width="160" height="100" as="alternateBounds"/>
                    </mxGeometry>
                </mxCell>
                <mxCell id="56" value="String- Taken from dropdown on form" style="shape=partialRectangle;html=1;whiteSpace=wrap;connectable=0;strokeColor=inherit;overflow=hidden;fillColor=none;top=0;left=0;bottom=0;right=0;pointerEvents=1;fontSize=16;" vertex="1" parent="44">
                    <mxGeometry x="320" width="210" height="100" as="geometry">
                        <mxRectangle width="210" height="100" as="alternateBounds"/>
                    </mxGeometry>
                </mxCell>
                <mxCell id="71" value="Int- Respective ID from th name" style="shape=partialRectangle;html=1;whiteSpace=wrap;connectable=0;strokeColor=inherit;overflow=hidden;fillColor=none;top=0;left=0;bottom=0;right=0;pointerEvents=1;fontSize=16;" vertex="1" parent="44">
                    <mxGeometry x="530" width="210" height="100" as="geometry">
                        <mxRectangle width="210" height="100" as="alternateBounds"/>
                    </mxGeometry>
                </mxCell>
                <mxCell id="46" value="string?" style="shape=partialRectangle;html=1;whiteSpace=wrap;connectable=0;strokeColor=inherit;overflow=hidden;fillColor=none;top=0;left=0;bottom=0;right=0;pointerEvents=1;fontSize=16;" vertex="1" parent="44">
                    <mxGeometry x="740" width="120" height="100" as="geometry">
                        <mxRectangle width="120" height="100" as="alternateBounds"/>
                    </mxGeometry>
                </mxCell>
                <mxCell id="47" value="string?" style="shape=partialRectangle;html=1;whiteSpace=wrap;connectable=0;strokeColor=inherit;overflow=hidden;fillColor=none;top=0;left=0;bottom=0;right=0;pointerEvents=1;fontSize=16;" vertex="1" parent="44">
                    <mxGeometry x="860" width="90" height="100" as="geometry">
                        <mxRectangle width="90" height="100" as="alternateBounds"/>
                    </mxGeometry>
                </mxCell>
                <mxCell id="59" value="Int (float)" style="shape=partialRectangle;html=1;whiteSpace=wrap;connectable=0;strokeColor=inherit;overflow=hidden;fillColor=none;top=0;left=0;bottom=0;right=0;pointerEvents=1;fontSize=16;" vertex="1" parent="44">
                    <mxGeometry x="950" width="170" height="100" as="geometry">
                        <mxRectangle width="170" height="100" as="alternateBounds"/>
                    </mxGeometry>
                </mxCell>
                <mxCell id="62" value="String" style="shape=partialRectangle;html=1;whiteSpace=wrap;connectable=0;strokeColor=inherit;overflow=hidden;fillColor=none;top=0;left=0;bottom=0;right=0;pointerEvents=1;fontSize=16;" vertex="1" parent="44">
                    <mxGeometry x="1120" width="200" height="100" as="geometry">
                        <mxRectangle width="200" height="100" as="alternateBounds"/>
                    </mxGeometry>
                </mxCell>
                <mxCell id="48" value="" style="shape=tableRow;horizontal=0;startSize=0;swimlaneHead=0;swimlaneBody=0;strokeColor=inherit;top=0;left=0;bottom=0;right=0;collapsible=0;dropTarget=0;fillColor=none;points=[[0,0.5],[1,0.5]];portConstraint=eastwest;fontSize=16;" vertex="1" parent="39">
                    <mxGeometry y="170" width="1320" height="100" as="geometry"/>
                </mxCell>
                <mxCell id="66" value="&quot;abc12345-1&quot;" style="shape=partialRectangle;html=1;whiteSpace=wrap;connectable=0;strokeColor=inherit;overflow=hidden;fillColor=none;top=0;left=0;bottom=0;right=0;pointerEvents=1;fontSize=16;" vertex="1" parent="48">
                    <mxGeometry width="160" height="100" as="geometry">
                        <mxRectangle width="160" height="100" as="alternateBounds"/>
                    </mxGeometry>
                </mxCell>
                <mxCell id="49" value="&quot;abc12345&quot;" style="shape=partialRectangle;html=1;whiteSpace=wrap;connectable=0;strokeColor=inherit;overflow=hidden;fillColor=none;top=0;left=0;bottom=0;right=0;pointerEvents=1;fontSize=16;" vertex="1" parent="48">
                    <mxGeometry x="160" width="160" height="100" as="geometry">
                        <mxRectangle width="160" height="100" as="alternateBounds"/>
                    </mxGeometry>
                </mxCell>
                <mxCell id="57" value="&quot;i3 Timetracker&quot;" style="shape=partialRectangle;html=1;whiteSpace=wrap;connectable=0;strokeColor=inherit;overflow=hidden;fillColor=none;top=0;left=0;bottom=0;right=0;pointerEvents=1;fontSize=16;" vertex="1" parent="48">
                    <mxGeometry x="320" width="210" height="100" as="geometry">
                        <mxRectangle width="210" height="100" as="alternateBounds"/>
                    </mxGeometry>
                </mxCell>
                <mxCell id="72" value="1" style="shape=partialRectangle;html=1;whiteSpace=wrap;connectable=0;strokeColor=inherit;overflow=hidden;fillColor=none;top=0;left=0;bottom=0;right=0;pointerEvents=1;fontSize=16;" vertex="1" parent="48">
                    <mxGeometry x="530" width="210" height="100" as="geometry">
                        <mxRectangle width="210" height="100" as="alternateBounds"/>
                    </mxGeometry>
                </mxCell>
                <mxCell id="50" value="1:00pm" style="shape=partialRectangle;html=1;whiteSpace=wrap;connectable=0;strokeColor=inherit;overflow=hidden;fillColor=none;top=0;left=0;bottom=0;right=0;pointerEvents=1;fontSize=16;" vertex="1" parent="48">
                    <mxGeometry x="740" width="120" height="100" as="geometry">
                        <mxRectangle width="120" height="100" as="alternateBounds"/>
                    </mxGeometry>
                </mxCell>
                <mxCell id="51" value="1:30pm" style="shape=partialRectangle;html=1;whiteSpace=wrap;connectable=0;strokeColor=inherit;overflow=hidden;fillColor=none;top=0;left=0;bottom=0;right=0;pointerEvents=1;fontSize=16;" vertex="1" parent="48">
                    <mxGeometry x="860" width="90" height="100" as="geometry">
                        <mxRectangle width="90" height="100" as="alternateBounds"/>
                    </mxGeometry>
                </mxCell>
                <mxCell id="60" value="0.5" style="shape=partialRectangle;html=1;whiteSpace=wrap;connectable=0;strokeColor=inherit;overflow=hidden;fillColor=none;top=0;left=0;bottom=0;right=0;pointerEvents=1;fontSize=16;" vertex="1" parent="48">
                    <mxGeometry x="950" width="170" height="100" as="geometry">
                        <mxRectangle width="170" height="100" as="alternateBounds"/>
                    </mxGeometry>
                </mxCell>
                <mxCell id="63" value="&quot;Worked on database tables&quot;" style="shape=partialRectangle;html=1;whiteSpace=wrap;connectable=0;strokeColor=inherit;overflow=hidden;fillColor=none;top=0;left=0;bottom=0;right=0;pointerEvents=1;fontSize=16;" vertex="1" parent="48">
                    <mxGeometry x="1120" width="200" height="100" as="geometry">
                        <mxRectangle width="200" height="100" as="alternateBounds"/>
                    </mxGeometry>
                </mxCell>
                <mxCell id="88" style="edgeStyle=none;html=1;exitX=0.204;exitY=-0.01;exitDx=0;exitDy=0;entryX=0.115;entryY=1.091;entryDx=0;entryDy=0;entryPerimeter=0;exitPerimeter=0;startArrow=classic;startFill=1;strokeWidth=4;" edge="1" parent="1" source="39" target="11">
                    <mxGeometry relative="1" as="geometry">
                        <Array as="points">
                            <mxPoint x="659" y="590"/>
                            <mxPoint x="1422" y="580"/>
                        </Array>
                    </mxGeometry>
                </mxCell>
                <mxCell id="89" style="edgeStyle=none;html=1;exitX=0.112;exitY=1.054;exitDx=0;exitDy=0;entryX=0.318;entryY=1.032;entryDx=0;entryDy=0;entryPerimeter=0;exitPerimeter=0;strokeWidth=4;startArrow=classic;startFill=1;" edge="1" parent="1" source="24" target="48">
                    <mxGeometry relative="1" as="geometry">
                        <Array as="points">
                            <mxPoint x="-170" y="1020"/>
                            <mxPoint x="810" y="1030"/>
                        </Array>
                    </mxGeometry>
                </mxCell>
                <mxCell id="90" style="edgeStyle=none;html=1;exitX=0.024;exitY=1.141;exitDx=0;exitDy=0;entryX=0.318;entryY=1.032;entryDx=0;entryDy=0;entryPerimeter=0;exitPerimeter=0;strokeWidth=4;startArrow=classic;startFill=1;" edge="1" parent="1" source="24">
                    <mxGeometry relative="1" as="geometry">
                        <mxPoint x="16" y="407" as="sourcePoint"/>
                        <mxPoint x="1022" y="953" as="targetPoint"/>
                        <Array as="points">
                            <mxPoint x="-310" y="1110"/>
                            <mxPoint x="1022" y="1120"/>
                        </Array>
                    </mxGeometry>
                </mxCell>
            </root>
        </mxGraphModel>
    </diagram>
</mxfile>